<?xml version="1.0" encoding="UTF-8" standalone="no"?>
<svg 
    role="img" 
    xmlns="http://www.w3.org/2000/svg" 
    width="8mm"
    height="8mm"
    viewBox="0 0 1000 1000"
    style="max-width:1.6em; height: auto;">
    
    <path 
        id="path" 
        style="opacity:1;vector-effect:none;fill:#000000;fill-opacity:1;"
        d="M 500 0C 224 0 0 224 0 500C 0 776 224 1000 500 1000C 776 1000 1000 776 1000 500C 1000 224 776 0 500 0C 500 0 500 0 500 0M 500 75C 735 75 925 265 925 500C 925 735 735 925 500 925C 265 925 75 735 75 500C 75 265 265 75 500 75C 500 75 500 75 500 75 M 250 475C 279 504 359 586 390 615C 400 625 410 615 410 615C 410 615 625 400 750 275C 765 260 785 260 800 275C 816 292 837 313 850 325C 865 340 865 360 850 375C 700 525 583 642 425 800C 410 815 390 815 375 800C 292 717 150 575 150 575C 135 560 135 540 150 525C 150 525 200 475 200 475C 215 461 235 460 250 475C 250 475 250 475 250 475"
        transform="">
    </path>    
</svg>