<?xml version="1.0" encoding="UTF-8" standalone="no"?>
<svg 
    role="img" 
    xmlns="http://www.w3.org/2000/svg" 
    width="8mm"
    height="8mm"
    viewBox="0 0 1000 1000"
    style="max-width:1.6em; height: auto;">
    
    <path 
        id="path" 
        style="opacity:1;vector-effect:none;fill:#000000;fill-opacity:1;"
        d="M 500 0C 224 0 0 224 0 500C 0 776 224 1000 500 1000C 776 1000 1000 776 1000 500C 1000 224 776 0 500 0C 500 0 500 0 500 0M 500 75C 735 75 925 265 925 500C 925 735 735 925 500 925C 265 925 75 735 75 500C 75 265 265 75 500 75C 500 75 500 75 500 75 M 792 267C 801 276 801 292 792 302C 792 302 756 337 756 337C 756 337 650 231 650 231C 650 231 686 196 686 196C 695 186 711 186 721 196C 721 196 792 267 792 267M 721 373C 721 373 420 673 420 673C 420 673 314 567 314 567C 314 567 615 267 615 267C 615 267 721 373 721 373M 385 708C 385 708 367 726 367 726C 364 730 359 732 355 733C 355 733 266 751 266 751C 249 754 233 739 237 721C 237 721 255 633 255 633C 255 628 258 624 261 620C 261 620 279 602 279 602C 279 602 385 708 385 708"
        transform="">
    </path>    
</svg>