<?xml version="1.0" encoding="UTF-8" standalone="no"?>
<svg 
    role="img" 
    xmlns="http://www.w3.org/2000/svg" 
    width="8mm"
    height="8mm"
    viewBox="0 0 1000 1000"
    style="max-width:1.6em; height: auto;">
    
    <path 
        id="path" 
        style="opacity:1;vector-effect:none;fill:#000000;fill-opacity:1;"
        d="M 500 0C 224 0 0 224 0 500C 0 776 224 1000 500 1000C 776 1000 1000 776 1000 500C 1000 224 776 0 500 0C 500 0 500 0 500 0M 500 75C 735 75 925 265 925 500C 925 735 735 925 500 925C 265 925 75 735 75 500C 75 265 265 75 500 75C 500 75 500 75 500 75 M 538 150C 538 150 538 462 538 462C 538 462 850 462 850 462C 850 462 850 538 850 538C 850 538 538 538 538 538C 538 538 538 850 538 850C 538 850 462 850 462 850C 462 850 462 538 462 538C 462 538 150 538 150 538C 150 538 150 462 150 462C 150 462 462 462 462 462C 462 462 462 150 462 150C 462 150 538 150 538 150"
        transform="">
    </path>    
</svg>