<?xml version="1.0" encoding="UTF-8" standalone="no"?>
<svg 
    role="img" 
    xmlns="http://www.w3.org/2000/svg" 
    width="6mm"
    height="6mm"
    viewBox="0 0 1000 1000"
    style="max-width:1.6em; height: auto;">
    
    <path 
        id="path" 
        style="opacity:1;vector-effect:none;fill:#000000;fill-opacity:1;"
        d=" M 200 425C 241 425 275 459 275 500C 275 541 241 575 200 575C 159 575 125 541 125 500C 125 459 159 425 200 425C 200 425 200 425 200 425M 500 425C 541 425 575 459 575 500C 575 541 541 575 500 575C 459 575 425 541 425 500C 425 459 459 425 500 425C 500 425 500 425 500 425M 800 425C 841 425 875 459 875 500C 875 541 841 575 800 575C 759 575 725 541 725 500C 725 459 759 425 800 425C 800 425 800 425 800 425"
        transform="">
    </path>    
</svg>